<svg width="42" height="48" viewBox="0 0 42 48" fill="none" xmlns="http://www.w3.org/2000/svg">
<path d="M17 0C14.243 0 12 2.243 12 5V8H2C0.896 8 0 8.896 0 10C0 11.104 0.896 12 2 12H4.10938L5.79297 42.332C5.97097 45.51 8.6002 48 11.7832 48H30.2168C33.3988 48 36.029 45.51 36.207 42.332L37.8906 12H40C41.104 12 42 11.104 42 10C42 8.896 41.104 8 40 8H30V5C30 2.243 27.757 0 25 0H17ZM17 4H25C25.552 4 26 4.449 26 5V8H16V5C16 4.449 16.448 4 17 4ZM21 16.25C21.967 16.25 22.75 17.034 22.75 18V38C22.75 38.966 21.967 39.75 21 39.75C20.033 39.75 19.25 38.966 19.25 38V18C19.25 17.034 20.033 16.25 21 16.25ZM29.0078 16.25C29.9728 16.284 30.7283 17.0945 30.6953 18.0605L29.998 38.1465C29.965 39.0925 29.191 39.8369 28.252 39.8359C28.231 39.8359 28.2105 39.834 28.1895 39.834C27.2245 39.8 26.469 38.9894 26.502 38.0234L27.1973 17.9375C27.2313 16.9725 28.0398 16.223 29.0078 16.25ZM12.9902 16.252C13.9542 16.229 14.7668 16.9735 14.8008 17.9395L15.498 38.0254C15.532 38.9914 14.7765 39.8019 13.8105 39.8359C13.7905 39.8359 13.769 39.8359 13.748 39.8359C12.81 39.8359 12.033 39.0915 12 38.1465L11.3027 18.0605C11.2687 17.0945 12.0242 16.286 12.9902 16.252Z" fill="#FF0000"/>
</svg>
